<mxfile host="app.diagrams.net" modified="2022-04-16T22:44:55.065Z" agent="5.0 (Macintosh; Intel Mac OS X 10_15_7) AppleWebKit/605.1.15 (KHTML, like Gecko) Version/15.3 Safari/605.1.15" etag="cW05lGUBa0roCMFy_CPn" version="17.4.5" type="github">
  <diagram id="prtHgNgQTEPvFCAcTncT" name="Page-1">
    <mxGraphModel dx="811" dy="566" grid="1" gridSize="10" guides="1" tooltips="1" connect="1" arrows="1" fold="1" page="1" pageScale="1" pageWidth="827" pageHeight="1169" math="0" shadow="0">
      <root>
        <mxCell id="0" />
        <mxCell id="1" parent="0" />
        <mxCell id="dNxyNK7c78bLwvsdeMH5-11" value="Orgchart" style="swimlane;html=1;startSize=20;horizontal=1;containerType=tree;glass=0;" parent="1" vertex="1">
          <mxGeometry x="30" y="10" width="710" height="470" as="geometry" />
        </mxCell>
        <mxCell id="aIiEBVvuGdzu9HEt9Qee-20" value="" style="whiteSpace=wrap;html=1;" vertex="1" parent="dNxyNK7c78bLwvsdeMH5-11">
          <mxGeometry x="435" y="70" width="130" height="380" as="geometry" />
        </mxCell>
        <mxCell id="aIiEBVvuGdzu9HEt9Qee-19" value="" style="whiteSpace=wrap;html=1;" vertex="1" parent="dNxyNK7c78bLwvsdeMH5-11">
          <mxGeometry x="575" y="70" width="130" height="190" as="geometry" />
        </mxCell>
        <mxCell id="aIiEBVvuGdzu9HEt9Qee-18" value="" style="whiteSpace=wrap;html=1;" vertex="1" parent="dNxyNK7c78bLwvsdeMH5-11">
          <mxGeometry x="290" y="70" width="130" height="190" as="geometry" />
        </mxCell>
        <mxCell id="aIiEBVvuGdzu9HEt9Qee-17" value="" style="whiteSpace=wrap;html=1;" vertex="1" parent="dNxyNK7c78bLwvsdeMH5-11">
          <mxGeometry x="145" y="70" width="130" height="190" as="geometry" />
        </mxCell>
        <mxCell id="aIiEBVvuGdzu9HEt9Qee-16" value="" style="whiteSpace=wrap;html=1;" vertex="1" parent="dNxyNK7c78bLwvsdeMH5-11">
          <mxGeometry x="5" y="70" width="130" height="190" as="geometry" />
        </mxCell>
        <mxCell id="aIiEBVvuGdzu9HEt9Qee-1" value="Home" style="rounded=0;whiteSpace=wrap;html=1;" vertex="1" parent="dNxyNK7c78bLwvsdeMH5-11">
          <mxGeometry x="10" y="80" width="120" height="60" as="geometry" />
        </mxCell>
        <mxCell id="aIiEBVvuGdzu9HEt9Qee-2" value="Contact" style="rounded=0;whiteSpace=wrap;html=1;" vertex="1" parent="dNxyNK7c78bLwvsdeMH5-11">
          <mxGeometry x="295" y="80" width="120" height="60" as="geometry" />
        </mxCell>
        <mxCell id="aIiEBVvuGdzu9HEt9Qee-3" value="About" style="rounded=0;whiteSpace=wrap;html=1;" vertex="1" parent="dNxyNK7c78bLwvsdeMH5-11">
          <mxGeometry x="150" y="80" width="120" height="60" as="geometry" />
        </mxCell>
        <mxCell id="aIiEBVvuGdzu9HEt9Qee-4" value="More About Jerboas" style="rounded=0;whiteSpace=wrap;html=1;" vertex="1" parent="dNxyNK7c78bLwvsdeMH5-11">
          <mxGeometry x="440" y="80" width="120" height="60" as="geometry" />
        </mxCell>
        <mxCell id="aIiEBVvuGdzu9HEt9Qee-5" value="Videos" style="rounded=0;whiteSpace=wrap;html=1;" vertex="1" parent="dNxyNK7c78bLwvsdeMH5-11">
          <mxGeometry x="580" y="80" width="120" height="60" as="geometry" />
        </mxCell>
        <mxCell id="aIiEBVvuGdzu9HEt9Qee-7" value="(navigation bar)" style="text;html=1;strokeColor=none;fillColor=none;align=center;verticalAlign=middle;whiteSpace=wrap;rounded=0;" vertex="1" parent="dNxyNK7c78bLwvsdeMH5-11">
          <mxGeometry x="300" y="40" width="115" height="30" as="geometry" />
        </mxCell>
        <mxCell id="aIiEBVvuGdzu9HEt9Qee-10" value="- jerboa basics&lt;br&gt;- guestbook&lt;br&gt;-gallery" style="shape=note;whiteSpace=wrap;html=1;backgroundOutline=1;darkOpacity=0.05;" vertex="1" parent="dNxyNK7c78bLwvsdeMH5-11">
          <mxGeometry x="30" y="150" width="80" height="100" as="geometry" />
        </mxCell>
        <mxCell id="aIiEBVvuGdzu9HEt9Qee-11" value="- about the website" style="shape=note;whiteSpace=wrap;html=1;backgroundOutline=1;darkOpacity=0.05;" vertex="1" parent="dNxyNK7c78bLwvsdeMH5-11">
          <mxGeometry x="170" y="150" width="80" height="100" as="geometry" />
        </mxCell>
        <mxCell id="aIiEBVvuGdzu9HEt9Qee-12" value="- email&lt;br&gt;- guestbook" style="shape=note;whiteSpace=wrap;html=1;backgroundOutline=1;darkOpacity=0.05;" vertex="1" parent="dNxyNK7c78bLwvsdeMH5-11">
          <mxGeometry x="317.5" y="150" width="80" height="100" as="geometry" />
        </mxCell>
        <mxCell id="aIiEBVvuGdzu9HEt9Qee-13" value="- informational videos&lt;br&gt;- cute/funny videos" style="shape=note;whiteSpace=wrap;html=1;backgroundOutline=1;darkOpacity=0.05;" vertex="1" parent="dNxyNK7c78bLwvsdeMH5-11">
          <mxGeometry x="600" y="150" width="80" height="100" as="geometry" />
        </mxCell>
        <mxCell id="aIiEBVvuGdzu9HEt9Qee-14" value="list format, all subjects link to their own page" style="text;html=1;strokeColor=none;fillColor=none;align=center;verticalAlign=middle;whiteSpace=wrap;rounded=0;" vertex="1" parent="dNxyNK7c78bLwvsdeMH5-11">
          <mxGeometry x="450" y="410" width="100" height="30" as="geometry" />
        </mxCell>
        <mxCell id="aIiEBVvuGdzu9HEt9Qee-15" value="- habitat&lt;br&gt;- diet&lt;br&gt;- types of jerboas&lt;br&gt;- scientific info&lt;br&gt;- legal info&lt;br&gt;- interesting facts&lt;br&gt;- jerboas as pets" style="shape=note;whiteSpace=wrap;html=1;backgroundOutline=1;darkOpacity=0.05;" vertex="1" parent="dNxyNK7c78bLwvsdeMH5-11">
          <mxGeometry x="460" y="150" width="80" height="250" as="geometry" />
        </mxCell>
      </root>
    </mxGraphModel>
  </diagram>
</mxfile>
